/* XPM */
static char * shade_active_xpm[] = {
"24 24 34 1",
" 	c None",
".	c #F6FFF7",
"+	c #E4FFE9",
"@	c #CCFED6",
"#	c #B9FEC8",
"$	c #FFFFFF",
"%	c #FEFFFE",
"&	c #EFFFF2",
"*	c #C4FED0",
"=	c #C9FED4",
"-	c #F9FFFA",
";	c #BCFECA",
">	c #D0FEDA",
",	c #F1FFF4",
"'	c #F8FFF9",
")	c #F4FFF6",
"!	c #EDFFF0",
"~	c #DAFEE1",
"{	c #CBFED6",
"]	c #FDFFFE",
"^	c #CEFED8",
"/	c #F7FFF9",
"(	c #ECFEF0",
"_	c #FCFFFD",
":	c #D7FEDE",
"<	c #ECFEEF",
"[	c #D2FEDB",
"}	c #DDFEE3",
"|	c #F5FFF7",
"1	c #D8FEE0",
"2	c #FDFFFD",
"3	c #BEFECC",
"4	c #EBFEEF",
"5	c #E3FEE9",
".+@#####################",
"$%$&*###################",
"$$$$%=##################",
"$$$$$-;#################",
"$$$$$$>#################",
"$$$$$$,#################",
"$$$$$$'#################",
"$$$$$$)#################",
"$$$$$$!#################",
"$$$$$$~#################",
"$$$$$${#################",
"$$$$$]^#################",
"$$$$$/*#################",
"$$$$%(##################",
"$$$$_:##################",
"$$$$$<##################",
"$$$$$-*#################",
"$$$$$%[#################",
"$$$$$$}#################",
"$$$$$$|#################",
"$$$$$$%1################",
"$$$$$$$2}3##############",
"$$$$$$$$$4=#############",
"%$$$$$$$$%53############"};
