/* XPM */
static char * shade_prelight_xpm[] = {
"24 24 28 1",
" 	c None",
".	c #FBFFFB",
"+	c #F2FFF4",
"@	c #E7FFEC",
"#	c #E0FFE6",
"$	c #FFFFFF",
"%	c #F7FFF9",
"&	c #E4FFE9",
"*	c #E6FFEB",
"=	c #FCFFFD",
"-	c #E1FFE7",
";	c #E9FFED",
">	c #F8FFFA",
",	c #FCFFFC",
"'	c #FAFFFB",
")	c #F6FFF8",
"!	c #EDFFF1",
"~	c #FEFFFF",
"{	c #E8FFED",
"]	c #FBFFFC",
"^	c #FEFFFE",
"/	c #ECFFEF",
"(	c #F6FFF7",
"_	c #EAFFEE",
":	c #EFFFF2",
"<	c #EDFFF0",
"[	c #E2FFE7",
"}	c #F5FFF7",
".+@#####################",
"$$$%&###################",
"$$$$$*##################",
"$$$$$=-#################",
"$$$$$$;#################",
"$$$$$$>#################",
"$$$$$$,#################",
"$$$$$$'#################",
"$$$$$$)#################",
"$$$$$$!#################",
"$$$$$$@#################",
"$$$$$~{#################",
"$$$$$]&#################",
"$$$$$)##################",
"$$$$^/##################",
"$$$$$(##################",
"$$$$$=&#################",
"$$$$$$_#################",
"$$$$$$:#################",
"$$$$$$'#################",
"$$$$$$$<################",
"$$$$$$$^:[##############",
"$$$$$$$$$}*#############",
"$$$$$$$$$$+[############"};
