/* XPM */
static char * close_prelight_xpm[] = {
"21 24 25 1",
" 	c None",
".	c #353836",
"+	c #616161",
"@	c #5F5F5F",
"#	c #5B5E5C",
"$	c #636363",
"%	c #FA0101",
"&	c #616060",
"*	c #F90202",
"=	c #FF0000",
"-	c #FA0202",
";	c #645C5C",
">	c #FB0202",
",	c #F80303",
"'	c #615F5F",
")	c #635C5C",
"!	c #FC0000",
"~	c #FB0101",
"{	c #FD0000",
"]	c #FC0101",
"^	c #6D5757",
"/	c #635E5E",
"(	c #675D5D",
"_	c #625D5D",
":	c #5E605F",
".....................",
".....................",
".....................",
".....................",
".....................",
"+++++++++@...........",
"++++++++++#..........",
"+++++++++++#.........",
"++++++++++++$........",
"+++%+&++*+++++.......",
"+++=-++==+++++.......",
"+++;=>,='+++++.......",
"+++)!~{='+++++.......",
"+++==++==&++++.......",
"+++]+^/+=&++++.......",
"++++(+_(&+++$........",
"+++++++++++:.........",
"++++++++++:..........",
"++++++++$@...........",
".....................",
".....................",
".....................",
".....................",
"....................."};
