/* XPM */
static char * close_active_xpm[] = {
"21 24 14 1",
" 	c None",
".	c #353836",
"+	c #616161",
"@	c #5F5F5F",
"#	c #5B5E5C",
"$	c #884848",
"%	c #9B3C3C",
"&	c #AF3030",
"*	c #636363",
"=	c #D71818",
"-	c #EB0C0C",
";	c #FF0000",
">	c #C32424",
",	c #5E605F",
".....................",
".....................",
".....................",
".....................",
".....................",
"+++++++++@...........",
"++++++++++#..........",
"+++++++++++#.........",
"++++$%&%$+++*........",
"+++$=-;-=$++++.......",
"+++>;;;;;>++++.......",
"+++-;;;;;-++++.......",
"+++-;;;;;-++++.......",
"+++>;;;;;>++++.......",
"+++$=-;-=$++++.......",
"++++$%&%$+++*........",
"+++++++++++,.........",
"++++++++++,..........",
"++++++++*@...........",
".....................",
".....................",
".....................",
".....................",
"....................."};
