/* XPM */
static char * close_inactive_xpm[] = {
"21 24 10 1",
" 	c None",
".	c #353836",
"+	c #616161",
"@	c #5F5F5F",
"#	c #5B5E5C",
"$	c #616060",
"%	c #636363",
"&	c #675C5C",
"*	c #655E5E",
"=	c #5E605F",
".....................",
".....................",
".....................",
".....................",
".....................",
"+++++++++@...........",
"++++++++++#..........",
"+++++++++++#.........",
"++++$+++++++%........",
"+++$++++++++++.......",
"++++++++++++++.......",
"++++++++++++++.......",
"++++++++++++++.......",
"++++++++++++++.......",
"+++++++++&++++.......",
"++++++++*+++%........",
"+++++++++++=.........",
"++++++++++=..........",
"++++++++%@...........",
".....................",
".....................",
".....................",
".....................",
"....................."};
