/* XPM */
static char * hide_prelight_xpm[] = {
"21 24 8 1",
" 	c None",
".	c #353836",
"+	c #616161",
"@	c #606160",
"#	c #19FB02",
"$	c #18FF00",
"%	c #19FB01",
"&	c #60625F",
".....................",
".....................",
".....................",
".....................",
".....................",
"+++++++++++++++++++++",
"+++++++++++++++++++++",
"+++++++++++++++++++++",
"++++++++@++++++++++++",
"+++++++@+++++++++++++",
"+++++++++++++++++++++",
"+++++++#$$$$$%+++++++",
"+++++++$$$$$$#+++++++",
"++++++++++&++++++++++",
"+++++++@+++++++++++++",
"+++++++++++++++++++++",
"+++++++++++++++++++++",
"+++++++++++++++++++++",
"+++++++++++++++++++++",
".....................",
".....................",
".....................",
".....................",
"....................."};
