/* XPM */
static char * maximize_prelight_xpm[] = {
"21 24 5 1",
" 	c None",
".	c #353836",
"+	c #616161",
"@	c #E3F700",
"#	c #616160",
".....................",
".....................",
".....................",
".....................",
".....................",
"+++++++++++++++++++++",
"+++++++++++++++++++++",
"+++++++++++++++++++++",
"+++++++++++++++++++++",
"++++++++++@@@++++++++",
"+++++++++++@@++++++++",
"+++++++#++++@++++++++",
"+++++++@#++++++++++++",
"+++++++@@#+++++++++++",
"+++++++@@@#++++++++++",
"+++++++++++++++++++++",
"+++++++++++++++++++++",
"+++++++++++++++++++++",
"+++++++++++++++++++++",
".....................",
".....................",
".....................",
".....................",
"....................."};
