/* XPM */
static char * shade_prelight_xpm[] = {
"21 24 12 1",
" 	c None",
".	c #353836",
"+	c #616161",
"@	c #5F6161",
"#	c #606161",
"$	c #0094FD",
"%	c #0096FF",
"&	c #0194FC",
"*	c #0294FB",
"=	c #0294FA",
"-	c #5E6264",
";	c #5E6164",
".....................",
".....................",
".....................",
".....................",
".....................",
"+++++++++++++++++++++",
"+++++++++++++++++++++",
"+++++++++++++++++++++",
"+++++++++@#++++++++++",
"+++++++++#$@+++++++++",
"+++++++++%%&#++++++++",
"+++++++#%%%%%#+++++++",
"+++++++%%%%%%*+++++++",
"+++++++==%%%%%+++++++",
"+++++++-%%%%%;+++++++",
"++++++++++##+++++++++",
"+++++++++++++++++++++",
"+++++++++++++++++++++",
"+++++++++++++++++++++",
".....................",
".....................",
".....................",
".....................",
"....................."};
