/* XPM */
static char * shade_inactive_xpm[] = {
"21 24 3 1",
" 	c None",
".	c #353836",
"+	c #616161",
".....................",
".....................",
".....................",
".....................",
".....................",
"+++++++++++++++++++++",
"+++++++++++++++++++++",
"+++++++++++++++++++++",
"+++++++++++++++++++++",
"+++++++++++++++++++++",
"+++++++++++++++++++++",
"+++++++++++++++++++++",
"+++++++++++++++++++++",
"+++++++++++++++++++++",
"+++++++++++++++++++++",
"+++++++++++++++++++++",
"+++++++++++++++++++++",
"+++++++++++++++++++++",
"+++++++++++++++++++++",
".....................",
".....................",
".....................",
".....................",
"....................."};
