/* XPM */
static char * shade_active_xpm[] = {
"21 24 10 1",
" 	c None",
".	c #353836",
"+	c #616161",
"@	c #486E88",
"#	c #3C749B",
"$	c #307BAF",
"%	c #1888D7",
"&	c #0C8FEB",
"*	c #0096FF",
"=	c #2482C3",
".....................",
".....................",
".....................",
".....................",
".....................",
"+++++++++++++++++++++",
"+++++++++++++++++++++",
"+++++++++++++++++++++",
"++++++++@#$#@++++++++",
"+++++++@%&*&%@+++++++",
"+++++++=*****=+++++++",
"+++++++&*****&+++++++",
"+++++++&*****&+++++++",
"+++++++=*****=+++++++",
"+++++++@%&*&%@+++++++",
"++++++++@#$#@++++++++",
"+++++++++++++++++++++",
"+++++++++++++++++++++",
"+++++++++++++++++++++",
".....................",
".....................",
".....................",
".....................",
"....................."};
