/* XPM */
static char * title_5_active_xpm[] = {
"4 24 3 1",
" 	c None",
".	c #353836",
"+	c #616161",
"....",
"....",
"....",
"....",
"....",
"++++",
"++++",
"++++",
"++++",
"++++",
"++++",
"++++",
"++++",
"++++",
"++++",
"++++",
"++++",
"++++",
"++++",
"....",
"....",
"....",
"....",
"...."};
