/* XPM */
static char * top_left_active_xpm[] = {
"21 24 7 1",
" 	c None",
".	c #353836",
"+	c #5F5F5F",
"@	c #616161",
"#	c #5B5E5C",
"$	c #636363",
"%	c #5E605F",
".....................",
".....................",
".....................",
".....................",
".....................",
"...........+@@@@@@@@@",
"..........#@@@@@@@@@@",
".........#@@@@@@@@@@@",
"........$@@@@@@@@@@@@",
".......@@@@@@@@@@@@@@",
".......@@@@@@@@@@@@@@",
".......@@@@@@@@@@@@@@",
".......@@@@@@@@@@@@@@",
".......@@@@@@@@@@@@@@",
".......@@@@@@@@@@@@@@",
"........$@@@@@@@@@@@@",
".........%@@@@@@@@@@@",
"..........%@@@@@@@@@@",
"...........+$@@@@@@@@",
".....................",
".....................",
".....................",
".....................",
"....................."};
