/* XPM */
static char * close_active_xpm[] = {
"21 24 3 1",
" 	c None",
".	c #E881A8",
"+	c #7FC1FF",
".....................",
".....................",
"+++++++++++++++++++++",
"+++++++++++++++++++++",
"+++++++++++++++++++++",
".++++++++++++++++++++",
".++++++++++++++++++++",
"..+++++++++++++++++++",
"..+++++++++++++++++++",
"...++++++++++++++++++",
"...++++++++++++++++++",
"....+++++++++++++++++",
"....+++++++++++++++++",
".....++++++++++++++++",
".....++++++++++++++++",
"......+++++++++++++++",
"......+++++++++++++++",
".......++++++++++++++",
".......++++++++++++++",
"........+++++++++++++",
"........+++++++++++++",
".........++++++++++++",
".....................",
"....................."};
