/* XPM */
static char * maximize_inactive_xpm[] = {
"21 24 3 1",
" 	c None",
".	c #7FC1FF",
"+	c #E881A8",
".....................",
".....................",
"+++++++++++..........",
"++++++++++++.........",
"++++++++++++.........",
".++++++++++++........",
"..++++++++++++.......",
"..++++++++++++.......",
"...++++++++++++......",
"...++++++++++++......",
"....++++++++++++.....",
"....++++++++++++.....",
".....++++++++++++....",
".....++++++++++++....",
"......++++++++++++...",
"......++++++++++++...",
".......++++++++++++..",
".......++++++++++++..",
"........++++++++++++.",
"........++++++++++++.",
".........++++++++++++",
".........++++++++++++",
".....................",
"....................."};
