/* XPM */
static char * shade_active_xpm[] = {
"20 24 10 1",
" 	c None",
".	c #E881A8",
"+	c #7FC1FF",
"@	c #B4A0D2",
"#	c #DD88B1",
"$	c #E682A9",
"%	c #A6A8DE",
"&	c #E781A8",
"*	c #CF91BC",
"=	c #E384AB",
"....................",
"....................",
"++++++++++@.........",
"+++++++++++.........",
"+++++++++++#........",
"++++++++++++........",
"$+++++++++++%.......",
"&++++++++++++.......",
"..++++++++++++......",
"..++++++++++++......",
"...++++++++++++.....",
"...++++++++++++.....",
"....++++++++++++....",
"....++++++++++++....",
".....++++++++++++...",
".....++++++++++++...",
"......++++++++++++..",
"......++++++++++++$.",
".......++++++++++++.",
".......*+++++++++++=",
"........++++++++++++",
"........++++++++++++",
"....................",
"...................."};
