/* XPM */
static char * shade_inactive_xpm[] = {
"20 24 3 1",
" 	c None",
".	c #7FC1FF",
"+	c #E881A8",
"....................",
"....................",
"++++++++++..........",
"+++++++++++.........",
"+++++++++++.........",
"++++++++++++........",
".++++++++++++.......",
".++++++++++++.......",
"..++++++++++++......",
"..++++++++++++......",
"...++++++++++++.....",
"...++++++++++++.....",
"....++++++++++++....",
"....++++++++++++....",
".....++++++++++++...",
".....++++++++++++...",
"......++++++++++++..",
"......++++++++++++..",
".......++++++++++++.",
".......++++++++++++.",
"........++++++++++++",
"........++++++++++++",
"....................",
"...................."};
