/* XPM */
static char * title_1_active_xpm[] = {
"4 24 3 1",
" 	c None",
".	c #E881A8",
"+	c #7FC1FF",
"....",
"....",
"++++",
"++++",
"++++",
"++++",
"....",
"....",
"....",
"....",
"....",
"....",
"....",
"....",
"....",
"....",
"....",
"....",
"....",
"....",
"....",
"....",
"....",
"...."};
