/* XPM */
static char * title_1_inactive_xpm[] = {
"4 24 3 1",
" 	c None",
".	c #7FC1FF",
"+	c #E881A8",
"....",
"....",
"++++",
"++++",
"++++",
"++++",
"....",
"....",
"....",
"....",
"....",
"....",
"....",
"....",
"....",
"....",
"....",
"....",
"....",
"....",
"....",
"....",
"....",
"...."};
