/* XPM */
static char * shade_prelight_xpm[] = {
"24 24 14 1",
" 	c None",
".	c #454545",
"+	c #6F7A71",
"@	c #A7BDAB",
"#	c #C5E0CA",
"$	c #D6F4DC",
"%	c #DFFDE5",
"&	c #DAF8E0",
"*	c #E0FFE6",
"=	c #BCD5C1",
"-	c #9CB0A0",
";	c #DEFDE4",
">	c #D7F4DD",
",	c #DFFEE5",
".......+@#$%%&**********",
".....+=*****************",
"....-;******************",
"...@********************",
"..-*********************",
".+;*********************",
".=**********************",
"+***********************",
"@***********************",
"#***********************",
">***********************",
"%***********************",
"%***********************",
"$***********************",
"#***********************",
"@***********************",
"+***********************",
".=**********************",
".+;*********************",
"..-*********************",
"...@********************",
"....-;******************",
".....+=*****************",
".......+@#$,************"};
