/* XPM */
static char * shade_active_xpm[] = {
"24 24 20 1",
" 	c None",
".	c #454545",
"+	c #454645",
"@	c #484B48",
"#	c #525F54",
"$	c #7CA484",
"%	c #A9E6B6",
"&	c #B7FBC6",
"*	c #B9FEC8",
"=	c #627A67",
"-	c #9DD5A9",
";	c #83AF8D",
">	c #B8FCC6",
",	c #8CBC97",
"'	c #A4DFB1",
")	c #B1F3C0",
"!	c #B8FCC7",
"~	c #A5E0B1",
"{	c #B4F6C3",
"]	c #BAFEC9",
"....+@#$%&**************",
".....=-*****************",
"....;>******************",
"...,********************",
"..;*********************",
".=>*********************",
".-**********************",
"=***********************",
",***********************",
"'***********************",
")***********************",
"!***********************",
"!***********************",
")***********************",
"'***********************",
",***********************",
"=***********************",
".-**********************",
".=>*********************",
"..;*********************",
"...,********************",
"....;>******************",
".....=-*****************",
".......=,~{]************"};
