/* XPM */
static char * bottom_active_xpm[] = {
"4 4 5 1",
" 	c None",
".	c #010101",
"+	c #020101",
"@	c #040203",
"#	c #000000",
"..+@",
"####",
"####",
"####"};
