/* XPM */
static char * close_active_xpm[] = {
"21 24 43 1",
" 	c None",
".	c #FFFFFF",
"+	c #010101",
"@	c #060606",
"#	c #151515",
"$	c #2E2E2E",
"%	c #515151",
"&	c #7F7F7F",
"*	c #B9B9B9",
"=	c #000000",
"-	c #0C0C0C",
";	c #5F5F5F",
">	c #C2C2C2",
",	c #545454",
"'	c #DEDEDE",
")	c #111111",
"!	c #B6B6B6",
"~	c #8A8A8A",
"{	c #D4D4D4",
"]	c #C4C4C4",
"^	c #6C6C6C",
"/	c #0A0A0A",
"(	c #929292",
"_	c #FAFAFA",
":	c #F6F6F6",
"<	c #EDEDED",
"[	c #DADADA",
"}	c #6D6D6D",
"|	c #555555",
"1	c #EBEBEB",
"2	c #FEFEFE",
"3	c #FDFDFD",
"4	c #F8F8F8",
"5	c #C5C5C5",
"6	c #0F0F0F",
"7	c #ECECEC",
"8	c #F5F5F5",
"9	c #CFCFCF",
"0	c #949494",
"a	c #848484",
"b	c #939393",
"c	c #E9E9E9",
"d	c #8D8D8D",
".....................",
".....................",
".....................",
".....................",
".....................",
"+@#$%&*..............",
"=======-;>...........",
"==========,'.........",
"===========)!........",
"======~{]^==/{.......",
"=====(_:<[}==|.......",
"=====1234<5==6.......",
"=====7.2389==6.......",
"=====0..24a==|.......",
"======b1cd==/{.......",
"===========)!........",
"==========,'.........",
"=======-;>...........",
"+@#$%&*..............",
".....................",
".....................",
".....................",
".....................",
"....................."};
