/* XPM */
static char * hide_active_xpm[] = {
"21 24 4 1",
" 	c None",
".	c #FFFFFF",
"+	c #000000",
"@	c #010101",
".....................",
".....................",
".....................",
".....................",
".....................",
"+++++++++++++++++++++",
"+++++++++++++++++++++",
"+++++++++++++++++++++",
"+++++++++++++++++++++",
"++++++@@@@@@@@@++++++",
"+++++++.......@++++++",
"+++++++.......+++++++",
"+++++++.......+++++++",
"+++++@@.......+++++++",
"+++++++++++++++++++++",
"+++++++++++++++++++++",
"+++++++++++++++++++++",
"+++++++++++++++++++++",
"+++++++++++++++++++++",
".....................",
".....................",
".....................",
".....................",
"....................."};
