/* XPM */
static char * title_3_active_xpm[] = {
"4 24 3 1",
" 	c None",
".	c #FFFFFF",
"+	c #000000",
"....",
"....",
"....",
"....",
"....",
"++++",
"++++",
"++++",
"++++",
"++++",
"++++",
"++++",
"++++",
"++++",
"++++",
"++++",
"++++",
"++++",
"++++",
"....",
"....",
"....",
"....",
"...."};
