/* XPM */
static char * top_left_active_xpm[] = {
"21 24 21 1",
" 	c None",
".	c #FFFFFF",
"+	c #B9B9B9",
"@	c #7F7F7F",
"#	c #515151",
"$	c #2E2E2E",
"%	c #151515",
"&	c #060606",
"*	c #010101",
"=	c #C2C2C2",
"-	c #5F5F5F",
";	c #0C0C0C",
">	c #000000",
",	c #DEDEDE",
"'	c #545454",
")	c #B6B6B6",
"!	c #111111",
"~	c #D4D4D4",
"{	c #0A0A0A",
"]	c #555555",
"^	c #0F0F0F",
".....................",
".....................",
".....................",
".....................",
".....................",
"..............+@#$%&*",
"...........=-;>>>>>>>",
".........,'>>>>>>>>>>",
"........)!>>>>>>>>>>>",
".......~{>>>>>>>>>>>>",
".......]>>>>>>>>>>>>>",
".......^>>>>>>>>>>>>>",
".......^>>>>>>>>>>>>>",
".......]>>>>>>>>>>>>>",
".......~{>>>>>>>>>>>>",
"........)!>>>>>>>>>>>",
".........,'>>>>>>>>>>",
"...........=-;>>>>>>>",
"..............+@#$%&*",
".....................",
".....................",
".....................",
".....................",
"....................."};
