/* XPM */
static char * close_active_xpm[] = {
"24 24 14 1",
" 	c None",
".	c #200137",
"+	c #D3739C",
"@	c #E07BA3",
"#	c #E57FA6",
"$	c #E67FA7",
"%	c #E780A7",
"&	c #DD79A1",
"*	c #E47EA6",
"=	c #E881A8",
"-	c #DD7AA2",
";	c #DB78A0",
">	c #D2729B",
",	c #DF7BA3",
"....................    ",
"......................  ",
"....................... ",
"....................... ",
"........................",
"........................",
"........................",
"........................",
"........................",
"........................",
"......+@#$$%%%$$$#......",
"......&*%%=====%=%......",
"......-$==========......",
"......;*%%========......",
"......>,*$%%=%=%==......",
"........................",
"........................",
"........................",
"........................",
"........................",
"........................",
"........................",
"........................",
"........................"};
